<svg width="256" height="256" viewBox="0 0 256 256" fill="none" xmlns="http://www.w3.org/2000/svg">
<g clip-path="url(#clip0_11_2)">
<g clip-path="url(#clip1_11_2)">
<path d="M142.376 183.683C142.266 183.236 142.17 182.781 141.978 181.872C141.91 181.553 141.766 180.864 141.508 179.531C141.218 178.04 141.073 177.294 140.967 176.655C140.8 175.629 140.661 174.599 140.551 173.565C140.288 171.167 140.085 168.762 139.943 166.354C139.787 163.714 139.687 162.011 139.711 159.588C139.719 158.802 139.747 157.344 139.865 155.505C140.02 153.08 140.257 151.338 140.725 147.955C141.127 145.049 141.942 142.214 142.489 139.332C142.527 139.129 142.627 138.595 143.044 138.335C143.349 138.145 143.653 138.209 144.501 138.321C145.663 138.476 144.866 138.327 146.423 138.542C147.191 138.649 147.413 138.689 148.348 138.823C149.004 138.918 149.52 138.988 149.746 139.019L149.866 139.035C154.484 139.654 162.369 142.275 162.369 142.275C164.47 142.973 165.521 143.321 166.748 143.804C169.347 144.825 171.213 145.764 173.166 146.755C175.457 147.913 177.706 149.154 179.908 150.474C183.288 152.517 186.539 154.764 189.645 157.202C192.374 159.656 194.804 162.424 196.883 165.446C199.435 169.159 200.816 172.332 201.26 173.39C203.005 177.551 203.675 181.005 203.919 182.425C204.071 183.312 204.629 186.748 204.458 191.241C204.368 193.616 204.105 195.462 203.922 196.727C203.718 198.13 203.708 197.846 202.634 203.038C201.992 206.146 201.644 207.946 200.869 208.033C200.797 208.042 200.673 208.041 199.666 207.427C198.936 206.982 198.596 206.722 198.062 206.383C196.269 205.245 196.301 205.346 194.331 204.128C193.53 203.633 191.619 202.394 187.829 199.935C187.199 199.526 186.544 199.157 185.916 198.744C184.374 197.731 183.777 197.203 183.503 197.396C183.309 197.535 183.419 197.942 183.676 199.198C183.84 199.995 183.943 200.804 184.137 201.595C184.715 203.956 184.478 203.508 185.735 208.966C186.071 210.424 186.361 211.892 186.7 213.349C187.359 216.176 187.689 217.291 187.102 217.834C186.967 217.959 186.692 218.138 184.382 217.827C182.766 217.608 182.407 217.454 180.428 217.115C179.008 216.872 178.598 216.852 177.1 216.559C176.471 216.441 175.844 216.305 175.222 216.154C174.523 215.98 174.041 215.837 172.712 215.429C170.875 214.866 169.957 214.585 169.728 214.503C168.456 214.052 167.494 213.626 166.649 213.251C165.963 212.948 165.283 212.629 164.612 212.295C164.612 212.295 163.634 211.808 162.75 211.312C160.408 209.999 158.3 208.397 158.041 208.199C157.002 207.405 155.185 206.003 153.173 203.826C152.115 202.68 151.343 201.688 150.616 200.753C149.808 199.714 149.116 198.823 148.309 197.546C147.591 196.411 147.153 195.557 146.404 194.097C145.696 192.717 145.245 191.837 144.734 190.578C144.285 189.476 144.493 189.811 143.531 187.144C142.905 185.409 142.662 184.838 142.376 183.683ZM88.7557 147.292C89.1469 147.049 89.5507 146.817 90.3574 146.353C91.0486 145.957 91.7432 145.567 92.4411 145.184C93.7726 144.448 94.4384 144.08 95.0141 143.782C95.9394 143.306 96.8779 142.856 97.8284 142.432C100.032 141.441 102.259 140.505 104.51 139.626C106.975 138.663 108.566 138.041 110.882 137.315C111.633 137.08 113.03 136.655 114.819 136.199C117.176 135.597 118.908 135.285 122.276 134.683C125.168 134.167 128.119 134.065 131.034 133.693C131.239 133.667 131.779 133.597 132.155 133.912C132.431 134.143 132.464 134.452 132.618 135.292C132.83 136.444 132.727 135.64 133.002 137.186C133.138 137.947 133.168 138.171 133.329 139.101C133.442 139.753 133.534 140.264 133.575 140.487L133.598 140.607C134.433 145.184 134.374 153.482 134.374 153.482C134.359 155.693 134.35 156.798 134.271 158.112C134.102 160.897 133.784 162.958 133.443 165.119C133.048 167.653 132.561 170.172 131.985 172.671C131.083 176.512 129.947 180.294 128.584 183.997C127.09 187.347 125.205 190.509 122.969 193.417C120.221 196.988 117.625 199.279 116.756 200.028C113.331 202.972 110.248 204.675 108.971 205.346C108.174 205.763 105.074 207.355 100.741 208.582C98.4514 209.23 96.6121 209.552 95.3499 209.768C93.9512 210.009 94.2184 209.911 88.9403 210.496C85.7819 210.846 83.9596 211.072 83.637 210.363C83.6075 210.297 83.5698 210.179 83.8437 209.033C84.0415 208.202 84.1832 207.799 84.3412 207.187C84.8711 205.133 84.784 205.194 85.3361 202.947C85.5605 202.033 86.1502 199.836 87.3216 195.477C87.5157 194.752 87.6648 194.016 87.8641 193.292C88.3527 191.514 88.6708 190.785 88.4029 190.585C88.211 190.442 87.8567 190.673 86.74 191.306C86.0314 191.708 85.2918 192.055 84.5995 192.484C82.5284 193.762 82.8827 193.399 78.0717 196.279C76.7874 197.049 75.478 197.778 74.1952 198.551C71.7064 200.049 70.7468 200.707 70.0478 200.318C69.8862 200.228 69.6316 200.022 69.2145 197.732C68.923 196.13 68.9584 195.741 68.6698 193.759C68.4631 192.334 68.3561 191.938 68.1723 190.426C68.0985 189.822 68.0321 189.268 67.9775 188.517C67.9258 187.799 67.914 187.298 67.8919 185.91C67.8601 183.991 67.8446 183.032 67.8513 182.79C67.8882 181.442 67.9967 180.397 68.0926 179.479C68.2107 178.339 68.3347 177.505 68.3731 177.249C68.3731 177.249 68.5362 176.17 68.7348 175.178C69.2618 172.547 70.1364 170.05 70.2442 169.743C70.6797 168.511 71.4539 166.351 72.9058 163.77C73.6704 162.41 74.3768 161.371 75.0433 160.391C75.7829 159.303 76.4162 158.371 77.3838 157.209C78.243 156.177 78.9213 155.497 80.0816 154.335C81.1769 153.237 81.8759 152.536 82.9159 151.662C83.8274 150.895 83.5728 151.196 85.8151 149.458C87.2751 148.327 87.7431 147.92 88.7557 147.292ZM106.848 85.1276C107.201 85.4246 107.546 85.7356 108.237 86.3583C108.48 86.5772 109.002 87.0496 109.995 87.976C111.108 89.0122 111.663 89.5311 112.125 89.9858C112.694 90.5459 113.306 91.1753 114.281 92.241C115.906 94.027 117.485 95.8536 119.018 97.7191C120.698 99.7627 121.782 101.081 123.188 103.056C123.644 103.697 124.48 104.892 125.468 106.449C126.769 108.503 127.603 110.051 129.216 113.062C130.602 115.649 131.611 118.42 132.865 121.074C132.954 121.26 133.188 121.752 133.003 122.206C132.868 122.539 132.585 122.665 131.833 123.072C130.801 123.629 131.534 123.283 130.147 124.022C129.464 124.386 129.26 124.484 128.424 124.924C127.838 125.232 127.38 125.479 127.179 125.586L127.072 125.644C122.972 127.852 115.048 130.361 115.048 130.361C112.939 131.029 111.884 131.363 110.607 131.694C107.903 132.394 105.841 132.728 103.678 133.073C99.7069 133.706 96.6682 133.969 96.0334 134.022C92.8839 134.287 88.8753 134.468 84.1943 134.292C80.5421 133.908 76.948 133.096 73.4867 131.871C69.2367 130.364 66.2518 128.609 65.2701 128.013C61.4084 125.67 58.8339 123.27 57.8006 122.264C57.1555 121.636 54.6806 119.183 52.174 115.449C50.8491 113.474 49.9745 111.827 49.3781 110.695C48.7175 109.442 48.8924 109.665 46.7047 104.834C45.3953 101.943 44.6166 100.282 45.1923 99.7561C45.2455 99.7075 45.3466 99.636 46.5224 99.5416C47.3756 99.4731 47.803 99.4834 48.4341 99.4444C50.5546 99.3117 50.4705 99.2491 52.7815 99.0781C53.7203 99.0088 55.9959 98.8901 60.5094 98.655C61.26 98.616 62.0077 98.5298 62.7584 98.4959C64.6021 98.4104 65.3956 98.487 65.5026 98.1701C65.5794 97.9438 65.2517 97.6793 64.3032 96.814C63.7017 96.2657 63.1414 95.671 62.5192 95.1448C60.6614 93.5735 61.1168 93.7983 56.886 90.1199C55.7568 89.1375 54.6577 88.1198 53.5255 87.1403C51.3289 85.2396 50.4055 84.5321 50.5605 83.7479C50.5967 83.5666 50.7141 83.2615 52.766 82.1575C54.2016 81.3859 54.5832 81.2989 56.3827 80.4123C57.6751 79.7755 58.0198 79.5515 59.403 78.9096C59.982 78.6361 60.5683 78.378 61.1611 78.1357C61.8284 77.8645 62.303 77.698 63.6183 77.2477C65.4355 76.6256 66.3448 76.3139 66.5773 76.2453C67.8719 75.8643 68.9016 75.644 69.805 75.4509C70.5386 75.2936 71.2756 75.1531 72.0156 75.0293C72.0156 75.0293 73.094 74.8502 74.1008 74.7323C76.769 74.4198 79.418 74.478 79.7435 74.4861C81.0514 74.5193 83.3477 74.5871 86.2558 75.1679C87.7866 75.4737 88.9949 75.8238 90.1345 76.1532C91.3989 76.5195 92.4831 76.8335 93.8885 77.3928C95.1359 77.8896 95.9943 78.3244 97.4601 79.0658C98.8448 79.7674 99.7276 80.2148 100.882 80.9319C101.893 81.5605 101.529 81.4117 103.876 83.0043C105.404 84.0412 105.937 84.3604 106.848 85.1268V85.1276ZM171.65 83.0986C171.476 83.5253 171.286 83.9491 170.907 84.7981C170.773 85.0959 170.485 85.7371 169.91 86.9671C169.265 88.3438 168.944 89.0321 168.654 89.6114C168.185 90.5394 167.691 91.4541 167.171 92.3545C165.972 94.4497 164.72 96.5145 163.417 98.5467C161.99 100.773 161.069 102.21 159.622 104.156C159.153 104.787 158.273 105.951 157.095 107.369C155.541 109.24 154.324 110.509 151.954 112.973C149.918 115.088 147.59 116.902 145.451 118.913C145.301 119.055 144.905 119.429 144.416 119.394C144.057 119.369 143.848 119.139 143.229 118.55C142.379 117.742 142.936 118.331 141.803 117.243C141.245 116.707 141.088 116.543 140.412 115.885C140.075 115.558 139.736 115.232 139.396 114.908C139.341 114.856 139.315 114.83 139.307 114.824C135.937 111.613 131.1 104.864 131.1 104.864C129.811 103.067 129.167 102.168 128.458 101.058C126.955 98.7059 126 96.8509 125.003 94.9038C123.173 91.3293 121.984 88.5244 121.737 87.9377C120.206 84.3012 118.898 80.575 117.821 76.7797C117.058 73.1925 116.721 69.5278 116.818 65.8619C116.94 61.3603 117.69 57.9834 117.954 56.8676C118.991 52.4759 120.482 49.2891 121.121 47.9965C121.52 47.1902 123.091 44.083 125.875 40.5484C127.345 38.6802 128.644 37.3403 129.538 36.4242C130.527 35.4094 130.369 35.6452 134.294 32.0745C136.644 29.9372 137.985 28.6843 138.664 29.0691C138.727 29.1044 138.826 29.1781 139.279 30.2652C139.608 31.0545 139.73 31.4643 139.963 32.0509C140.744 34.0246 140.778 33.9244 141.654 36.0661C142.01 36.9364 142.827 39.0612 144.445 43.2738C144.715 43.9747 145.028 44.6579 145.293 45.3602C145.943 47.0848 146.116 47.8623 146.451 47.866C146.69 47.869 146.84 47.4754 147.371 46.308C147.708 45.5666 148.102 44.851 148.41 44.0985C149.333 41.8485 149.259 42.3504 151.456 37.1959C152.043 35.8199 152.672 34.4616 153.255 33.0834C154.387 30.4111 154.776 29.3152 155.57 29.2201C155.755 29.198 156.082 29.215 157.767 30.8224C158.945 31.9477 159.145 32.2831 160.546 33.718C161.552 34.749 161.872 35.0063 162.911 36.1213C163.326 36.5679 163.706 36.9762 164.192 37.5518C164.657 38.1024 164.961 38.5011 165.796 39.611C166.951 41.1447 167.528 41.9119 167.665 42.1116C168.429 43.223 168.957 44.1324 169.42 44.9313C169.796 45.5794 170.158 46.236 170.505 46.9006C170.505 46.9006 171.008 47.869 171.432 48.7887C172.554 51.226 173.317 53.7597 173.41 54.0707C173.783 55.3236 174.428 57.5243 174.773 60.4656C174.955 62.014 174.995 63.2699 175.033 64.4527C175.074 65.7675 175.11 66.8937 175.012 68.4015C174.924 69.7399 174.776 70.6884 174.522 72.3098C174.282 73.842 174.13 74.8185 173.803 76.1363C173.516 77.2911 173.545 76.8983 172.754 79.6208C172.239 81.3925 172.099 81.9961 171.65 83.0986H171.65ZM193.608 144.009C193.147 143.976 192.685 143.927 191.759 143.828C191.434 143.794 190.734 143.718 189.385 143.552C187.874 143.365 187.119 143.272 186.479 143.176C185.45 143.018 184.425 142.831 183.407 142.616C181.041 142.125 178.688 141.574 176.35 140.965C173.787 140.297 172.134 139.867 169.834 139.094C169.088 138.844 167.707 138.367 165.992 137.687C163.73 136.789 162.145 136.026 159.066 134.537C156.423 133.258 153.975 131.607 151.398 130.198C151.217 130.099 150.739 129.839 150.62 129.363C150.534 129.014 150.688 128.745 151.058 127.974C151.564 126.918 151.176 127.629 151.863 126.217C152.201 125.521 152.308 125.322 152.725 124.476C153.018 123.882 153.244 123.414 153.342 123.209L153.395 123.1C155.413 118.906 160.346 112.227 160.346 112.227C161.659 110.448 162.316 109.56 163.154 108.543C164.931 106.389 166.402 104.908 167.949 103.359C169.76 101.541 171.636 99.7887 173.574 98.1052C175.966 96.0417 179.102 93.5433 182.992 90.9387C186.173 89.1053 189.56 87.6533 193.082 86.6126C197.406 85.3376 200.855 85.006 201.999 84.9116C206.503 84.5402 209.999 84.9706 211.427 85.1784C212.319 85.3081 215.764 85.8395 219.991 87.3901C222.225 88.2097 223.903 89.0292 225.051 89.5945C226.324 90.2209 226.05 90.1435 230.664 92.768C233.425 94.3377 235.032 95.2251 234.877 95.9886C234.862 96.0586 234.823 96.1758 233.927 96.9423C233.277 97.498 232.925 97.7412 232.437 98.1436C230.799 99.4945 230.906 99.4959 229.136 100.991C228.418 101.598 226.646 103.03 223.133 105.869C222.549 106.34 221.995 106.849 221.408 107.318C219.966 108.468 219.279 108.873 219.378 109.192C219.45 109.42 219.871 109.441 221.148 109.584C221.958 109.675 222.761 109.827 223.573 109.888C226.002 110.069 225.501 110.154 231.089 110.647C232.581 110.779 234.069 110.958 235.562 111.086C238.457 111.334 239.621 111.364 239.957 112.09C240.035 112.258 240.119 112.574 239.11 114.671C238.403 116.137 238.144 116.432 237.211 118.205C236.54 119.479 236.393 119.862 235.652 121.193C235.356 121.726 235.083 122.212 234.685 122.851C234.305 123.463 234.019 123.876 233.22 125.012C232.115 126.582 231.564 127.367 231.416 127.559C230.593 128.628 229.889 129.41 229.272 130.097C228.771 130.655 228.258 131.201 227.732 131.736C227.732 131.736 226.965 132.513 226.219 133.199C224.245 135.018 222.068 136.525 221.8 136.71C220.722 137.451 218.825 138.744 216.13 139.98C214.711 140.632 213.528 141.058 212.412 141.46C211.173 141.905 210.112 142.288 208.645 142.66C207.343 142.99 206.394 143.143 204.77 143.402C203.238 143.648 202.261 143.805 200.904 143.902C199.716 143.987 200.099 143.892 197.262 143.983C195.415 144.04 194.796 144.095 193.608 144.009Z" fill="#F3ABC1" fill-opacity="0.9"/>
<path d="M96.5316 193.844C96.1897 193.844 95.8655 193.906 95.5711 194.026L95.139 194.244L62.6525 211.094L61.9159 211.472C61.9159 211.472 61.906 211.476 61.906 211.481C60.4738 212.365 59.5312 213.85 59.5312 215.54V250.75C59.5312 251.96 60.6015 252.937 61.9354 252.937C62.348 252.937 62.7408 252.84 63.0844 252.672C63.1138 252.654 63.1532 252.636 63.1828 252.618L96.2861 235.057L96.3352 235.03C97.8965 234.177 98.9373 232.616 98.9373 230.842V196.022C98.9375 194.818 97.8574 193.844 96.5316 193.844Z" fill="#1296DB"/>
<path d="M94.0634 184.454L59.6398 168.97C59.6398 168.97 57.6204 168.062 56.4992 168.062C55.3781 168.062 53.3683 168.97 53.3683 168.97L18.9152 184.454C18.9152 184.454 17.4016 185.078 17.4016 186.25C17.4016 187.493 18.9741 188.429 18.9741 188.429L53.5648 206.686L54.1146 206.967C54.8315 207.286 55.6448 207.469 56.4992 207.469C57.3633 207.469 58.1882 207.286 58.9133 206.958L59.3943 206.709L94.0439 188.42C94.0439 188.42 95.4663 187.655 95.4663 186.25C95.4663 185.019 94.0634 184.454 94.0634 184.454Z" fill="#1296DB"/>
<path d="M51.0941 211.481L50.3378 211.094L17.8595 194.244L17.4276 194.026C17.1443 193.906 16.8103 193.844 16.4669 193.844C15.1412 193.844 14.0627 194.818 14.0627 196.022V230.842C14.0627 232.621 15.1018 234.177 16.6633 235.03L16.7027 235.057L49.8076 252.618C50.1709 252.823 50.6031 252.938 51.0648 252.938C52.3889 252.938 53.4689 251.96 53.4689 250.751V215.54C53.4688 213.85 52.526 212.365 51.0941 211.481Z" fill="#1296DB"/>
<path d="M182.719 21.8438H189.781C190.718 21.8438 191.616 21.4717 192.278 20.8095C192.94 20.1472 193.312 19.249 193.312 18.3125C193.312 17.376 192.94 16.4778 192.278 15.8155C191.616 15.1533 190.718 14.7812 189.781 14.7812H182.719C181.782 14.7812 180.884 15.1533 180.222 15.8155C179.56 16.4778 179.188 17.376 179.188 18.3125C179.188 19.249 179.56 20.1472 180.222 20.8095C180.884 21.4717 181.782 21.8438 182.719 21.8438ZM182.719 43.0312H189.781C190.718 43.0312 191.616 42.6592 192.278 41.997C192.94 41.3347 193.312 40.4365 193.312 39.5C193.312 38.5635 192.94 37.6653 192.278 37.003C191.616 36.3408 190.718 35.9688 189.781 35.9688H182.719C181.782 35.9688 180.884 36.3408 180.222 37.003C179.56 37.6653 179.188 38.5635 179.188 39.5C179.188 40.4365 179.56 41.3347 180.222 41.997C180.884 42.6592 181.782 43.0312 182.719 43.0312ZM200.375 21.8438H207.438C208.374 21.8438 209.272 21.4717 209.934 20.8095C210.597 20.1472 210.969 19.249 210.969 18.3125C210.969 17.376 210.597 16.4778 209.934 15.8155C209.272 15.1533 208.374 14.7812 207.438 14.7812H200.375C199.438 14.7812 198.54 15.1533 197.878 15.8155C197.216 16.4778 196.844 17.376 196.844 18.3125C196.844 19.249 197.216 20.1472 197.878 20.8095C198.54 21.4717 199.438 21.8438 200.375 21.8438ZM200.375 43.0312H207.438C208.374 43.0312 209.272 42.6592 209.934 41.997C210.597 41.3347 210.969 40.4365 210.969 39.5C210.969 38.5635 210.597 37.6653 209.934 37.003C209.272 36.3408 208.374 35.9688 207.438 35.9688H200.375C199.438 35.9688 198.54 36.3408 197.878 37.003C197.216 37.6653 196.844 38.5635 196.844 39.5C196.844 40.4365 197.216 41.3347 197.878 41.997C198.54 42.6592 199.438 43.0312 200.375 43.0312ZM218.031 21.8438H225.094C226.03 21.8438 226.928 21.4717 227.591 20.8095C228.253 20.1472 228.625 19.249 228.625 18.3125C228.625 17.376 228.253 16.4778 227.591 15.8155C226.928 15.1533 226.03 14.7812 225.094 14.7812H218.031C217.095 14.7812 216.197 15.1533 215.534 15.8155C214.872 16.4778 214.5 17.376 214.5 18.3125C214.5 19.249 214.872 20.1472 215.534 20.8095C216.197 21.4717 217.095 21.8438 218.031 21.8438ZM235.688 21.8438H242.75C243.687 21.8438 244.585 21.4717 245.247 20.8095C245.909 20.1472 246.281 19.249 246.281 18.3125C246.281 17.376 245.909 16.4778 245.247 15.8155C244.585 15.1533 243.687 14.7812 242.75 14.7812H235.688C234.751 14.7812 233.853 15.1533 233.191 15.8155C232.528 16.4778 232.156 17.376 232.156 18.3125C232.156 19.249 232.528 20.1472 233.191 20.8095C233.853 21.4717 234.751 21.8438 235.688 21.8438ZM218.031 43.0312H225.094C226.03 43.0312 226.928 42.6592 227.591 41.997C228.253 41.3347 228.625 40.4365 228.625 39.5C228.625 38.5635 228.253 37.6653 227.591 37.003C226.928 36.3408 226.03 35.9688 225.094 35.9688H218.031C217.095 35.9688 216.197 36.3408 215.534 37.003C214.872 37.6653 214.5 38.5635 214.5 39.5C214.5 40.4365 214.872 41.3347 215.534 41.997C216.197 42.6592 217.095 43.0312 218.031 43.0312ZM235.688 43.0312H242.75C243.687 43.0312 244.585 42.6592 245.247 41.997C245.909 41.3347 246.281 40.4365 246.281 39.5C246.281 38.5635 245.909 37.6653 245.247 37.003C244.585 36.3408 243.687 35.9688 242.75 35.9688H235.688C234.751 35.9688 233.853 36.3408 233.191 37.003C232.528 37.6653 232.156 38.5635 232.156 39.5C232.156 40.4365 232.528 41.3347 233.191 41.997C233.853 42.6592 234.751 43.0312 235.688 43.0312ZM244.05 57.1562H182.719C181.782 57.1562 180.884 57.5283 180.222 58.1905C179.56 58.8528 179.188 59.751 179.188 60.6875C179.188 61.624 179.56 62.5222 180.222 63.1845C180.884 63.8467 181.782 64.2188 182.719 64.2188H244.05C244.986 64.2188 245.884 63.8467 246.546 63.1845C247.209 62.5222 247.581 61.624 247.581 60.6875C247.581 59.751 247.209 58.8528 246.546 58.1905C245.884 57.5283 244.986 57.1562 244.05 57.1562Z" fill="#D4237A"/>
</g>
</g>
<defs>
<clipPath id="clip0_11_2">
<rect width="256" height="256" fill="white"/>
</clipPath>
<clipPath id="clip1_11_2">
<rect width="256" height="256" fill="white"/>
</clipPath>
</defs>
</svg>
